<?xml version="1.0" standalone="no"?>
<svg xmlns="http://www.w3.org/2000/svg" xmlns:xlink="http://www.w3.org/1999/xlink" width="119pt" height="399pt" viewBox="0.00 0.00 119.00 399.20">
<g id="graph0" class="graph" transform="translate(4,395.20001220703125) scale(1)" data-name="C">

<polygon fill="white" stroke="none" points="-4,4 -4,-395.2 115,-395.2 115,4 -4,4" style=""/>
<!-- 1 -->
<g id="node1" class="node" pointer-events="visible" data-name="1">

<ellipse fill="none" stroke="black" stroke-width="2" cx="74" cy="-373.2" rx="27" ry="18" style=""/>
<text text-anchor="middle" x="74" y="-369" font-family="Times,serif" font-size="14.00" style="">1</text>
</g>
<!-- 2 -->
<g id="node2" class="node" pointer-events="visible" data-name="2">

<ellipse fill="none" stroke="black" cx="27" cy="-284.4" rx="27" ry="18" style=""/>
<text text-anchor="middle" x="27" y="-280.2" font-family="Times,serif" font-size="14.00" style="">2</text>
</g>
<!-- 1&#45;&gt;2 -->
<g id="edge1" class="edge" data-name="1-&gt;2">

<path fill="none" stroke="black" d="M65.16,-355.87C58.27,-343.14 48.57,-325.24 40.68,-310.66" style=""/>
<polygon fill="black" stroke="black" points="43.64,-308.78 35.8,-301.65 37.48,-312.11 43.64,-308.78" style=""/>
<text text-anchor="middle" x="58.5" y="-324.6" font-family="Times,serif" font-size="14.00" style="">5</text>
</g>
<!-- 3 -->
<g id="node3" class="node" pointer-events="visible" data-name="3">

<ellipse fill="none" stroke="black" cx="84" cy="-195.6" rx="27" ry="18" style=""/>
<text text-anchor="middle" x="84" y="-191.4" font-family="Times,serif" font-size="14.00" style="">3</text>
</g>
<!-- 1&#45;&gt;3 -->
<g id="edge2" class="edge" data-name="1-&gt;3">

<path fill="none" stroke="black" d="M74.98,-355.04C76.71,-324.62 80.33,-260.98 82.42,-224.28" style=""/>
<polygon fill="black" stroke="black" points="85.94,-224.01 83.02,-213.83 78.96,-223.61 85.94,-224.01" style=""/>
<text text-anchor="middle" x="82.5" y="-280.2" font-family="Times,serif" font-size="14.00" style="">3</text>
</g>
<!-- 2&#45;&gt;3 -->
<g id="edge4" class="edge" data-name="2-&gt;3">

<path fill="none" stroke="black" d="M37.45,-267.48C45.97,-254.51 58.14,-235.98 67.9,-221.12" style=""/>
<polygon fill="black" stroke="black" points="71.05,-222.7 73.61,-212.42 65.2,-218.86 71.05,-222.7" style=""/>
<text text-anchor="middle" x="64.5" y="-235.8" font-family="Times,serif" font-size="14.00" style="">3</text>
</g>
<!-- 4 -->
<g id="node4" class="node" pointer-events="visible" data-name="4">

<ellipse fill="none" stroke="black" cx="27" cy="-106.8" rx="27" ry="18" style=""/>
<text text-anchor="middle" x="27" y="-102.6" font-family="Times,serif" font-size="14.00" style="">4</text>
</g>
<!-- 2&#45;&gt;4 -->
<g id="edge3" class="edge" data-name="2-&gt;4">

<path fill="none" stroke="black" d="M27,-266.24C27,-235.82 27,-172.18 27,-135.48" style=""/>
<polygon fill="black" stroke="black" points="30.5,-135.03 27,-125.03 23.5,-135.03 30.5,-135.03" style=""/>
<text text-anchor="middle" x="30.5" y="-191.4" font-family="Times,serif" font-size="14.00" style="">6</text>
</g>
<!-- 3&#45;&gt;4 -->
<g id="edge6" class="edge" data-name="3-&gt;4">

<path fill="none" stroke="black" d="M73.55,-178.68C65.03,-165.71 52.86,-147.18 43.1,-132.32" style=""/>
<polygon fill="black" stroke="black" points="45.8,-130.06 37.39,-123.62 39.95,-133.9 45.8,-130.06" style=""/>
<text text-anchor="middle" x="64.5" y="-147" font-family="Times,serif" font-size="14.00" style="">1</text>
</g>
<!-- 5 -->
<g id="node5" class="node" pointer-events="visible" data-name="5">

<ellipse fill="none" stroke="black" stroke-width="2" cx="59" cy="-18" rx="27" ry="18" style=""/>
<text text-anchor="middle" x="59" y="-13.8" font-family="Times,serif" font-size="14.00" style="">5</text>
</g>
<!-- 3&#45;&gt;5 -->
<g id="edge5" class="edge" data-name="3-&gt;5">

<path fill="none" stroke="black" d="M81.56,-177.44C77.2,-146.81 68.04,-82.5 62.83,-45.93" style=""/>
<polygon fill="black" stroke="black" points="66.29,-45.37 61.42,-35.97 59.36,-46.36 66.29,-45.37" style=""/>
<text text-anchor="middle" x="76.5" y="-102.6" font-family="Times,serif" font-size="14.00" style="">2</text>
</g>
<!-- 4&#45;&gt;5 -->
<g id="edge7" class="edge" data-name="4-&gt;5">

<path fill="none" stroke="black" stroke-dasharray="5,2" d="M33.17,-89.06C37.73,-76.7 44.03,-59.61 49.26,-45.41" style=""/>
<polygon fill="black" stroke="black" points="52.67,-46.28 52.85,-35.68 46.11,-43.86 52.67,-46.28" style=""/>
<text text-anchor="middle" x="49.5" y="-58.2" font-family="Times,serif" font-size="14.00" style="">1</text>
</g>
</g>
</svg>